<svg width="72" height="72" viewBox="0 0 72 72" fill="none" xmlns="http://www.w3.org/2000/svg">
<path fill-rule="evenodd" clip-rule="evenodd" d="M47.7604 11.2312L57.1665 6.8773C53.531 4.22975 49.3802 2.24723 44.8934 1.10673C42.0487 0.383978 39.069 0 35.9999 0C33.7331 0 31.5158 0.20969 29.365 0.610008L26.5552 13.4038L25.6827 17.376L24.6865 21.9129L30.4004 19.2675L35.4035 16.9517L43.9762 12.9834L47.7604 11.2312ZM71.9999 35.9996V35.9479L61.4447 31.716L57.5249 30.1441L52.5522 28.1501L54.3349 34.4436L55.7395 39.4042L58.7607 50.0701L59.9186 54.1594L61.8668 61.0378C63.87 58.9692 65.627 56.6604 67.091 54.1594C67.859 52.8473 68.5463 51.4819 69.1465 50.0701C70.9836 45.7478 71.9999 40.9924 71.9999 35.9996ZM24.6099 1.83936L22.4329 11.7509L21.5604 15.723L19.6933 24.2245L18.5801 29.2935L17.0257 36.3713L2.92969 21.7518C4.64478 17.7764 7.05538 14.1719 10.009 11.0913C11.034 10.0216 12.1249 9.01512 13.2741 8.07832C16.609 5.36106 20.4395 3.22876 24.6099 1.83936ZM2.8534 50.0703H23.5254L19.4695 45.6668L15.8476 41.735L8.62991 33.8991L5.68937 30.7069L1.39429 26.0447C0.725468 28.3731 0.285939 30.7978 0.100215 33.2945C0.033768 34.1877 0 35.0897 0 35.9998C0 36.6278 0.0163394 37.2519 0.0479288 37.8718C0.26851 42.1821 1.24724 46.2915 2.8534 50.0703ZM39.7047 54.1594L34.1668 61.6222L27.2596 70.9308H27.259C22.8425 69.8295 18.7484 67.9124 15.1466 65.3482C13.8084 64.3961 12.5389 63.3547 11.3456 62.2328C8.83365 59.8712 6.66161 57.1534 4.90894 54.1594H39.7047ZM43.0836 71.3028C48.8187 70.159 54.0626 67.6515 58.4628 64.1336L55.6382 54.1594L54.4798 50.0702L52.6416 43.5796L47.8253 50.0702L44.7911 54.1594L36.9836 64.6804L31.7375 71.75C33.1357 71.915 34.5577 72 35.9999 72C38.4247 72 40.7934 71.7603 43.0836 71.3028ZM71.7234 31.5152L63.917 28.3851L59.9967 26.8132L51.1718 23.2746L46.3424 21.3384L40.6748 19.0656L45.1164 17.0095L48.9011 15.2574L60.69 9.80054C63.0957 12.0679 65.1882 14.6626 66.8973 17.5139C67.6751 18.8107 68.3733 20.1598 68.9849 21.5552C70.3509 24.6695 71.2883 28.0147 71.7234 31.5152ZM42.7715 50.0702L51.1862 38.7546L47.5856 26.1944L35.5625 21.3911L23.5977 26.9106L20.6621 40.2981L30.0055 50.0702H42.7715Z" fill="url(#paint0_linear_23_741)"/>
<defs>
<linearGradient id="paint0_linear_23_741" x1="20.2045" y1="72.045" x2="20.2045" y2="0.0675461" gradientUnits="userSpaceOnUse">
<stop stop-color="#3341F5"/>
<stop offset="1" stop-color="#5E69FF"/>
</linearGradient>
</defs>
</svg>
